<svg xmlns="http://www.w3.org/2000/svg" xmlns:xlink="http://www.w3.org/1999/xlink" width="237.936" height="88.981" viewBox="0 0 237.936 88.981">
  <defs>
    <linearGradient id="linear-gradient" x1="0.5" y1="1" x2="0.5" gradientUnits="objectBoundingBox">
      <stop offset="0" stop-color="#f88d50"/>
      <stop offset="1" stop-color="#ad532e"/>
    </linearGradient>
    <linearGradient id="linear-gradient-2" x1="0.5" x2="0.5" y2="1" gradientUnits="objectBoundingBox">
      <stop offset="0" stop-color="#f88d50"/>
      <stop offset="1" stop-color="#a44f2b"/>
    </linearGradient>
    <linearGradient id="linear-gradient-3" x1="1" y1="0.5" x2="0" y2="0.5" gradientUnits="objectBoundingBox">
      <stop offset="0" stop-color="#944827"/>
      <stop offset="1" stop-color="#f88d50"/>
    </linearGradient>
    <linearGradient id="linear-gradient-4" x1="0.124" y1="0.813" x2="0.764" y2="0.256" gradientUnits="objectBoundingBox">
      <stop offset="0" stop-color="#a5502d"/>
      <stop offset="1" stop-color="#f88d50"/>
    </linearGradient>
  </defs>
  <g id="Group_1" data-name="Group 1" transform="translate(-869.212 96.801)">
    <g id="Group_4" data-name="Group 4" transform="translate(925.224 -65.746)">
      <g id="Group_2" data-name="Group 2">
        <g id="Group_1-2" data-name="Group 1">
          <path id="Path_1" data-name="Path 1" d="M964.073-50.619a9.711,9.711,0,0,1,8.623,4.471q2.969,4.472,2.969,13.01,0,8.491-2.957,12.975a9.7,9.7,0,0,1-8.634,4.483,9.685,9.685,0,0,1-8.6-4.471q-2.968-4.472-2.969-12.986t2.958-13A9.674,9.674,0,0,1,964.073-50.619Zm0,31.5q7.441,0,7.441-14.023,0-14.046-7.441-14.047a5.969,5.969,0,0,0-5.521,3.638q-1.9,3.634-1.9,10.409,0,6.846,1.884,10.434A5.964,5.964,0,0,0,964.073-19.115Z" transform="translate(-952.507 50.619)" fill="#1a1718"/>
          <path id="Path_2" data-name="Path 2" d="M1022.21-16.009h-4.341L1005.8-42.577v26.568h-3.912V-49.66h4.364l12.116,26.328V-49.66h3.84Z" transform="translate(-968.683 50.305)" fill="#1a1718"/>
          <path id="Path_3" data-name="Path 3" d="M1058.514-50.619a9.711,9.711,0,0,1,8.623,4.471q2.969,4.472,2.969,13.01,0,8.491-2.957,12.975a9.7,9.7,0,0,1-8.634,4.483,9.685,9.685,0,0,1-8.6-4.471q-2.969-4.472-2.969-12.986t2.957-13A9.674,9.674,0,0,1,1058.514-50.619Zm0,31.5q7.441,0,7.441-14.023,0-14.046-7.441-14.047a5.971,5.971,0,0,0-5.521,3.638q-1.894,3.634-1.9,10.409,0,6.846,1.884,10.434A5.964,5.964,0,0,0,1058.514-19.115Z" transform="translate(-983.442 50.619)" fill="#1a1718"/>
          <path id="Path_4" data-name="Path 4" d="M1116.651-16.009h-4.341l-12.067-26.568v26.568h-3.911V-49.66h4.364l12.116,26.328V-49.66h3.84Z" transform="translate(-999.617 50.305)" fill="#1a1718"/>
          <path id="Path_5" data-name="Path 5" d="M1165.141-49.66l-10.518,19.245v14.406h-3.888V-30.415L1140.218-49.66h4.412l8.037,15.143,8.061-15.143Z" transform="translate(-1013.992 50.305)" fill="#1a1718"/>
          <path id="Path_6" data-name="Path 6" d="M1200.175-50.619a9.711,9.711,0,0,1,8.623,4.471q2.969,4.472,2.969,13.01,0,8.491-2.957,12.975a9.7,9.7,0,0,1-8.634,4.483,9.685,9.685,0,0,1-8.6-4.471q-2.968-4.472-2.969-12.986t2.958-13A9.675,9.675,0,0,1,1200.175-50.619Zm0,31.5q7.441,0,7.441-14.023,0-14.046-7.441-14.047a5.969,5.969,0,0,0-5.521,3.638q-1.9,3.634-1.9,10.409,0,6.846,1.885,10.434A5.963,5.963,0,0,0,1200.175-19.115Z" transform="translate(-1029.843 50.619)" fill="#1a1718"/>
        </g>
      </g>
      <g id="Group_3" data-name="Group 3" transform="translate(1.711 42.296)">
        <path id="Path_7" data-name="Path 7" d="M958.939,17.3a1.908,1.908,0,0,1-.451.555,2.021,2.021,0,0,1-.613.346,2.223,2.223,0,0,1-.744.12,2.175,2.175,0,0,1-.831-.159,2.05,2.05,0,0,1-.688-.46,1.637,1.637,0,0,1-.322-.432,2.055,2.055,0,0,1-.168-.507,3.88,3.88,0,0,1-.061-.633q-.009-.357-.009-.83t.009-.832a3.883,3.883,0,0,1,.061-.634,2.006,2.006,0,0,1,.168-.5,1.648,1.648,0,0,1,.322-.435,2.067,2.067,0,0,1,.688-.459,2.163,2.163,0,0,1,.831-.161,2.223,2.223,0,0,1,.744.122,1.993,1.993,0,0,1,.613.346,1.917,1.917,0,0,1,.451.555,2.434,2.434,0,0,1,.255.746h-.652a1.566,1.566,0,0,0-.484-.877,1.351,1.351,0,0,0-.927-.325,1.491,1.491,0,0,0-.564.109,1.339,1.339,0,0,0-.463.308,1.218,1.218,0,0,0-.226.307,1.344,1.344,0,0,0-.124.392,3.752,3.752,0,0,0-.054.55q-.013.322-.013.791t.013.787a3.8,3.8,0,0,0,.054.551,1.357,1.357,0,0,0,.124.392,1.189,1.189,0,0,0,.226.305,1.306,1.306,0,0,0,.463.309,1.518,1.518,0,0,0,.564.109,1.376,1.376,0,0,0,.935-.327,1.55,1.55,0,0,0,.493-.876h.634A2.455,2.455,0,0,1,958.939,17.3Z" transform="translate(-955.052 -12.28)" fill="#1a1718"/>
        <path id="Path_8" data-name="Path 8" d="M968.477,16.136a3.7,3.7,0,0,1-.063.633,1.975,1.975,0,0,1-.166.507,1.655,1.655,0,0,1-.322.432,2.075,2.075,0,0,1-.685.46,2.168,2.168,0,0,1-.835.159,2.062,2.062,0,0,1-1.519-.619,1.63,1.63,0,0,1-.321-.432,1.958,1.958,0,0,1-.168-.507,3.873,3.873,0,0,1-.062-.633q-.009-.357-.009-.83t.009-.832a3.875,3.875,0,0,1,.062-.634,1.913,1.913,0,0,1,.168-.5,1.641,1.641,0,0,1,.321-.435,2.174,2.174,0,0,1,3.039,0,1.666,1.666,0,0,1,.322.435,1.93,1.93,0,0,1,.166.5,3.7,3.7,0,0,1,.063.634c.005.237.009.514.009.832S968.483,15.9,968.477,16.136Zm-.639-1.621a3.831,3.831,0,0,0-.054-.547,1.366,1.366,0,0,0-.125-.386,1.2,1.2,0,0,0-.226-.307,1.329,1.329,0,0,0-.463-.313,1.462,1.462,0,0,0-1.127,0,1.335,1.335,0,0,0-.464.313,1.183,1.183,0,0,0-.225.307,1.406,1.406,0,0,0-.126.386,3.885,3.885,0,0,0-.054.547c-.009.215-.011.478-.011.791s0,.573.011.787a3.875,3.875,0,0,0,.054.547,1.439,1.439,0,0,0,.126.389,1.2,1.2,0,0,0,.225.3,1.348,1.348,0,0,0,.464.314,1.462,1.462,0,0,0,1.127,0,1.341,1.341,0,0,0,.463-.314,1.223,1.223,0,0,0,.226-.3,1.4,1.4,0,0,0,.125-.389,3.821,3.821,0,0,0,.054-.547q.013-.322.013-.787T967.839,14.515Z" transform="translate(-958.09 -12.28)" fill="#1a1718"/>
        <path id="Path_9" data-name="Path 9" d="M977.891,18.3l-3.156-4.768V18.3H974.1V12.357h.6l3.156,4.751V12.357h.634V18.3Z" transform="translate(-961.291 -12.305)" fill="#1a1718"/>
        <path id="Path_10" data-name="Path 10" d="M987.745,17.346a1.48,1.48,0,0,1-.418.53,1.938,1.938,0,0,1-.652.334,2.867,2.867,0,0,1-.839.117,3.16,3.16,0,0,1-1.143-.183,2.6,2.6,0,0,1-.894-.6l.434-.435a2.136,2.136,0,0,0,.744.51,2.47,2.47,0,0,0,.876.143,1.652,1.652,0,0,0,1.027-.289.966.966,0,0,0,.377-.814,1.235,1.235,0,0,0-.071-.427.765.765,0,0,0-.214-.316.876.876,0,0,0-.3-.18,2.882,2.882,0,0,0-.48-.106l-.693-.108a2.188,2.188,0,0,1-1.094-.451,1.408,1.408,0,0,1-.451-1.111,1.71,1.71,0,0,1,.135-.688,1.434,1.434,0,0,1,.379-.53,1.763,1.763,0,0,1,.6-.339,2.421,2.421,0,0,1,.793-.122,2.754,2.754,0,0,1,.976.155,2.546,2.546,0,0,1,.793.5l-.409.408a1.959,1.959,0,0,0-.593-.38,2.129,2.129,0,0,0-.793-.128,1.316,1.316,0,0,0-.927.3,1.038,1.038,0,0,0-.325.8.861.861,0,0,0,.266.685,1.278,1.278,0,0,0,.356.2,2.306,2.306,0,0,0,.447.124l.652.1c.139.023.262.046.371.071a1.9,1.9,0,0,1,.288.089,1.4,1.4,0,0,1,.231.112,1.307,1.307,0,0,1,.2.146,1.461,1.461,0,0,1,.5,1.177A1.657,1.657,0,0,1,987.745,17.346Z" transform="translate(-964.468 -12.28)" fill="#1a1718"/>
        <path id="Path_11" data-name="Path 11" d="M994.672,12.925V18.3h-.634V12.925h-1.72v-.568h4.074v.568Z" transform="translate(-967.259 -12.305)" fill="#1a1718"/>
        <path id="Path_12" data-name="Path 12" d="M1004.811,18.3l-1.354-2.639h-1.428V18.3h-.634V12.357h2.28a2.184,2.184,0,0,1,.709.112,1.585,1.585,0,0,1,.56.327,1.437,1.437,0,0,1,.362.521,1.765,1.765,0,0,1,.13.693,1.575,1.575,0,0,1-.359,1.066,1.63,1.63,0,0,1-.935.529l1.411,2.7Zm-.34-5.106a1.3,1.3,0,0,0-.855-.272h-1.587V15.1h1.587a1.316,1.316,0,0,0,.855-.266.993.993,0,0,0,.331-.819A1,1,0,0,0,1004.471,13.2Z" transform="translate(-970.232 -12.305)" fill="#1a1718"/>
        <path id="Path_13" data-name="Path 13" d="M1014.777,17.155a1.892,1.892,0,0,1-.434.639,1.975,1.975,0,0,1-.658.412,2.442,2.442,0,0,1-1.663,0,1.873,1.873,0,0,1-1.085-1.051,2.1,2.1,0,0,1-.153-.815V12.357h.634v3.932a1.8,1.8,0,0,0,.1.619,1.29,1.29,0,0,0,.288.467,1.319,1.319,0,0,0,.456.3,1.664,1.664,0,0,0,1.184,0,1.293,1.293,0,0,0,.748-.767,1.739,1.739,0,0,0,.1-.619V12.357h.635V16.34A2.114,2.114,0,0,1,1014.777,17.155Z" transform="translate(-973.307 -12.305)" fill="#1a1718"/>
        <path id="Path_14" data-name="Path 14" d="M1024.3,17.3a1.906,1.906,0,0,1-.451.555,2.015,2.015,0,0,1-.613.346,2.219,2.219,0,0,1-.743.12,2.171,2.171,0,0,1-.83-.159,2.044,2.044,0,0,1-.689-.46,1.656,1.656,0,0,1-.323-.432,2.085,2.085,0,0,1-.167-.507,3.867,3.867,0,0,1-.061-.633q-.009-.357-.009-.83t.009-.832a3.869,3.869,0,0,1,.061-.634,2.035,2.035,0,0,1,.167-.5,1.667,1.667,0,0,1,.323-.435,2.06,2.06,0,0,1,.689-.459,2.159,2.159,0,0,1,.83-.161,2.22,2.22,0,0,1,.743.122,1.987,1.987,0,0,1,.613.346,1.915,1.915,0,0,1,.451.555,2.431,2.431,0,0,1,.255.746h-.651a1.57,1.57,0,0,0-.484-.877,1.351,1.351,0,0,0-.927-.325,1.486,1.486,0,0,0-.564.109,1.338,1.338,0,0,0-.463.308,1.218,1.218,0,0,0-.226.307,1.366,1.366,0,0,0-.125.392,3.926,3.926,0,0,0-.055.55c-.008.215-.013.478-.013.791s0,.573.013.787a3.98,3.98,0,0,0,.055.551,1.38,1.38,0,0,0,.125.392,1.189,1.189,0,0,0,.226.305,1.3,1.3,0,0,0,.463.309,1.512,1.512,0,0,0,.564.109,1.376,1.376,0,0,0,.935-.327,1.55,1.55,0,0,0,.492-.876h.635A2.452,2.452,0,0,1,1024.3,17.3Z" transform="translate(-976.463 -12.28)" fill="#1a1718"/>
        <path id="Path_15" data-name="Path 15" d="M1031.229,12.925V18.3h-.634V12.925h-1.72v-.568h4.074v.568Z" transform="translate(-979.233 -12.305)" fill="#1a1718"/>
        <path id="Path_16" data-name="Path 16" d="M1037.952,18.3V12.357h.634V18.3Z" transform="translate(-982.206 -12.305)" fill="#1a1718"/>
        <path id="Path_17" data-name="Path 17" d="M1046.634,16.136a3.923,3.923,0,0,1-.063.633,1.921,1.921,0,0,1-.167.507,1.66,1.66,0,0,1-.321.432,2.076,2.076,0,0,1-.685.46,2.171,2.171,0,0,1-.835.159,2.059,2.059,0,0,1-1.519-.619,1.653,1.653,0,0,1-.323-.432,2.085,2.085,0,0,1-.168-.507,3.894,3.894,0,0,1-.061-.633q-.009-.357-.009-.83t.009-.832a3.9,3.9,0,0,1,.061-.634,2.036,2.036,0,0,1,.168-.5,1.664,1.664,0,0,1,.323-.435,2.173,2.173,0,0,1,3.039,0,1.671,1.671,0,0,1,.321.435,1.878,1.878,0,0,1,.167.5,3.925,3.925,0,0,1,.063.634q.009.355.009.832T1046.634,16.136ZM1046,14.515a4.015,4.015,0,0,0-.055-.547,1.4,1.4,0,0,0-.126-.386,1.2,1.2,0,0,0-.225-.307,1.334,1.334,0,0,0-.464-.313,1.462,1.462,0,0,0-1.127,0,1.34,1.34,0,0,0-.463.313,1.183,1.183,0,0,0-.226.307,1.363,1.363,0,0,0-.125.386,3.7,3.7,0,0,0-.054.547q-.013.322-.014.791t.014.787a3.687,3.687,0,0,0,.054.547,1.394,1.394,0,0,0,.125.389,1.2,1.2,0,0,0,.226.3,1.353,1.353,0,0,0,.463.314,1.462,1.462,0,0,0,1.127,0,1.346,1.346,0,0,0,.464-.314,1.218,1.218,0,0,0,.225-.3,1.435,1.435,0,0,0,.126-.389,4,4,0,0,0,.055-.547q.011-.322.011-.787T1046,14.515Z" transform="translate(-983.691 -12.28)" fill="#1a1718"/>
        <path id="Path_18" data-name="Path 18" d="M1056.048,18.3l-3.156-4.768V18.3h-.635V12.357h.6l3.156,4.751V12.357h.634V18.3Z" transform="translate(-986.892 -12.305)" fill="#1a1718"/>
        <path id="Path_19" data-name="Path 19" d="M1071.014,18.277l-.534-.652c-.062.056-.142.124-.242.2a2.025,2.025,0,0,1-.368.231,2.757,2.757,0,0,1-.5.186,2.341,2.341,0,0,1-.643.08,2.263,2.263,0,0,1-.782-.126,1.771,1.771,0,0,1-.593-.35,1.51,1.51,0,0,1-.375-.544,1.857,1.857,0,0,1-.129-.709,1.511,1.511,0,0,1,.109-.593,1.712,1.712,0,0,1,.288-.469,2.469,2.469,0,0,1,.412-.378q.235-.171.477-.339c-.073-.089-.146-.181-.222-.277a2.972,2.972,0,0,1-.209-.3,1.719,1.719,0,0,1-.155-.339,1.3,1.3,0,0,1,.039-.871,1.139,1.139,0,0,1,.272-.393,1.264,1.264,0,0,1,.418-.264,1.428,1.428,0,0,1,.528-.1,1.37,1.37,0,0,1,.516.1,1.282,1.282,0,0,1,.414.264,1.132,1.132,0,0,1,.272.4,1.269,1.269,0,0,1,.1.5,1.007,1.007,0,0,1-.189.615,1.92,1.92,0,0,1-.471.447.912.912,0,0,1-.083.054c-.051.03-.112.071-.185.12s-.131.091-.175.126l1.511,1.828a1.71,1.71,0,0,0,.154-.27,1.554,1.554,0,0,0,.1-.3,2.857,2.857,0,0,0,.059-.351,4.118,4.118,0,0,0,.021-.442h.6a4.1,4.1,0,0,1-.133,1.019,2.116,2.116,0,0,1-.417.8l.909,1.094Zm-2.529-3.056c-.128.089-.254.179-.376.268a2.025,2.025,0,0,0-.325.293,1.346,1.346,0,0,0-.231.355,1.1,1.1,0,0,0-.087.447,1.236,1.236,0,0,0,.091.484,1.11,1.11,0,0,0,.656.617,1.465,1.465,0,0,0,.506.085,2.1,2.1,0,0,0,.676-.118,2.211,2.211,0,0,0,.726-.46Zm.818-2.2a.678.678,0,0,0-.5-.2.657.657,0,0,0-.5.2.693.693,0,0,0-.188.5.794.794,0,0,0,.122.412,4.8,4.8,0,0,0,.413.564c.032-.023.077-.051.13-.089l.129-.085c.033-.024.053-.038.058-.043a2.243,2.243,0,0,0,.371-.313.6.6,0,0,0,.163-.43A.7.7,0,0,0,1069.3,13.019Z" transform="translate(-991.671 -12.28)" fill="#1a1718"/>
        <path id="Path_20" data-name="Path 20" d="M1086.292,15.915a4.714,4.714,0,0,1-.054.671,2.8,2.8,0,0,1-.171.63,1.582,1.582,0,0,1-.355.535,1.781,1.781,0,0,1-.652.41,2.453,2.453,0,0,1-.852.142h-2.037V12.357h2.037a2.438,2.438,0,0,1,.852.141,1.8,1.8,0,0,1,.652.41,1.689,1.689,0,0,1,.355.514,2.488,2.488,0,0,1,.171.584,4.079,4.079,0,0,1,.054.625c0,.215,0,.426,0,.63S1086.294,15.686,1086.292,15.915Zm-.635-1.2a4.515,4.515,0,0,0-.037-.517,2.077,2.077,0,0,0-.118-.463,1.108,1.108,0,0,0-.233-.375,1.27,1.27,0,0,0-.526-.34,2.05,2.05,0,0,0-.643-.1h-1.294v4.809h1.294a2.09,2.09,0,0,0,.643-.094,1.294,1.294,0,0,0,.526-.338,1.107,1.107,0,0,0,.233-.4,2.45,2.45,0,0,0,.118-.51,5.379,5.379,0,0,0,.037-.563c0-.2,0-.384,0-.569S1085.66,14.9,1085.657,14.715Z" transform="translate(-996.69 -12.305)" fill="#1a1718"/>
        <path id="Path_21" data-name="Path 21" d="M1091.894,18.3V12.357h3.69v.568h-3.056v2.1h2.6v.567h-2.6v2.145h3.056V18.3Z" transform="translate(-999.875 -12.305)" fill="#1a1718"/>
        <path id="Path_22" data-name="Path 22" d="M1102,18.3h-.518l-1.953-5.945h.667l1.545,4.809,1.545-4.809h.668Z" transform="translate(-1002.376 -12.305)" fill="#1a1718"/>
        <path id="Path_23" data-name="Path 23" d="M1108.855,18.3V12.357h3.69v.568h-3.056v2.1h2.607v.567h-2.607v2.145h3.056V18.3Z" transform="translate(-1005.431 -12.305)" fill="#1a1718"/>
        <path id="Path_24" data-name="Path 24" d="M1117.672,18.3V12.357h.635v5.376h3.04V18.3Z" transform="translate(-1008.319 -12.305)" fill="#1a1718"/>
        <path id="Path_25" data-name="Path 25" d="M1129.521,16.136a3.7,3.7,0,0,1-.063.633,1.971,1.971,0,0,1-.166.507,1.647,1.647,0,0,1-.322.432,2.075,2.075,0,0,1-.685.46,2.169,2.169,0,0,1-.835.159,2.062,2.062,0,0,1-1.519-.619,1.628,1.628,0,0,1-.321-.432,1.926,1.926,0,0,1-.167-.507,3.788,3.788,0,0,1-.063-.633q-.009-.357-.009-.83t.009-.832a3.791,3.791,0,0,1,.063-.634,1.882,1.882,0,0,1,.167-.5,1.638,1.638,0,0,1,.321-.435,2.173,2.173,0,0,1,3.039,0,1.658,1.658,0,0,1,.322.435,1.925,1.925,0,0,1,.166.5,3.7,3.7,0,0,1,.063.634q.008.355.009.832T1129.521,16.136Zm-.639-1.621a3.812,3.812,0,0,0-.055-.547,1.359,1.359,0,0,0-.124-.386,1.207,1.207,0,0,0-.227-.307,1.331,1.331,0,0,0-.462-.313,1.464,1.464,0,0,0-1.128,0,1.333,1.333,0,0,0-.464.313,1.175,1.175,0,0,0-.225.307,1.41,1.41,0,0,0-.126.386,3.939,3.939,0,0,0-.055.547c-.009.215-.011.478-.011.791s0,.573.011.787a3.928,3.928,0,0,0,.055.547,1.443,1.443,0,0,0,.126.389,1.194,1.194,0,0,0,.225.3,1.345,1.345,0,0,0,.464.314,1.464,1.464,0,0,0,1.128,0,1.344,1.344,0,0,0,.462-.314,1.227,1.227,0,0,0,.227-.3,1.39,1.39,0,0,0,.124-.389,3.8,3.8,0,0,0,.055-.547q.013-.322.013-.787T1128.883,14.515Z" transform="translate(-1010.84 -12.28)" fill="#1a1718"/>
        <path id="Path_26" data-name="Path 26" d="M1139.06,14.829a1.517,1.517,0,0,1-.375.55,1.717,1.717,0,0,1-.58.351,2.131,2.131,0,0,1-.747.124h-1.578V18.3h-.635V12.357h2.213a2.228,2.228,0,0,1,.747.12,1.626,1.626,0,0,1,.58.351,1.582,1.582,0,0,1,.375.551,1.848,1.848,0,0,1,.135.722A1.883,1.883,0,0,1,1139.06,14.829Zm-.851-1.613a1.379,1.379,0,0,0-.911-.292h-1.519v2.363h1.519a1.367,1.367,0,0,0,.911-.3,1.1,1.1,0,0,0,.351-.89A1.088,1.088,0,0,0,1138.209,13.216Z" transform="translate(-1014.042 -12.305)" fill="#1a1718"/>
        <path id="Path_27" data-name="Path 27" d="M1148.792,18.3V13.783l-1.629,3.583h-.543l-1.654-3.583V18.3h-.634V12.357h.634l1.938,4.216,1.888-4.216h.634V18.3Z" transform="translate(-1017.051 -12.305)" fill="#1a1718"/>
        <path id="Path_28" data-name="Path 28" d="M1155.833,18.3V12.357h3.69v.568h-3.056v2.1h2.605v.567h-2.605v2.145h3.056V18.3Z" transform="translate(-1020.818 -12.305)" fill="#1a1718"/>
        <path id="Path_29" data-name="Path 29" d="M1168.438,18.3l-3.156-4.768V18.3h-.635V12.357h.6l3.156,4.751V12.357h.634V18.3Z" transform="translate(-1023.705 -12.305)" fill="#1a1718"/>
        <path id="Path_30" data-name="Path 30" d="M1176.552,12.925V18.3h-.635V12.925h-1.72v-.568h4.076v.568Z" transform="translate(-1026.833 -12.305)" fill="#1a1718"/>
        <path id="Path_31" data-name="Path 31" d="M1186.464,17.346a1.48,1.48,0,0,1-.418.53,1.937,1.937,0,0,1-.652.334,2.865,2.865,0,0,1-.839.117,3.158,3.158,0,0,1-1.143-.183,2.6,2.6,0,0,1-.894-.6l.434-.435a2.134,2.134,0,0,0,.744.51,2.468,2.468,0,0,0,.876.143,1.652,1.652,0,0,0,1.027-.289.967.967,0,0,0,.377-.814,1.233,1.233,0,0,0-.071-.427.766.766,0,0,0-.214-.316.876.876,0,0,0-.3-.18,2.881,2.881,0,0,0-.48-.106l-.693-.108a2.184,2.184,0,0,1-1.094-.451,1.408,1.408,0,0,1-.451-1.111,1.708,1.708,0,0,1,.135-.688,1.431,1.431,0,0,1,.379-.53,1.761,1.761,0,0,1,.6-.339,2.42,2.42,0,0,1,.793-.122,2.754,2.754,0,0,1,.976.155,2.546,2.546,0,0,1,.793.5l-.409.408a1.961,1.961,0,0,0-.593-.38,2.129,2.129,0,0,0-.793-.128,1.316,1.316,0,0,0-.927.3,1.038,1.038,0,0,0-.325.8.861.861,0,0,0,.266.685,1.279,1.279,0,0,0,.356.2,2.3,2.3,0,0,0,.447.124l.652.1c.139.023.262.046.371.071a1.9,1.9,0,0,1,.288.089,1.4,1.4,0,0,1,.231.112,1.3,1.3,0,0,1,.2.146,1.461,1.461,0,0,1,.5,1.177A1.657,1.657,0,0,1,1186.464,17.346Z" transform="translate(-1029.559 -12.28)" fill="#1a1718"/>
        <path id="Path_32" data-name="Path 32" d="M1196.4,18.3V12.357h.634v5.376h3.039V18.3Z" transform="translate(-1034.106 -12.305)" fill="#1a1718"/>
        <path id="Path_33" data-name="Path 33" d="M1205.335,12.925V18.3h-.635V12.925h-1.719v-.568h4.076v.568Z" transform="translate(-1036.262 -12.305)" fill="#1a1718"/>
        <path id="Path_34" data-name="Path 34" d="M1216.18,15.915a4.9,4.9,0,0,1-.055.671,2.723,2.723,0,0,1-.172.63,1.575,1.575,0,0,1-.354.535,1.807,1.807,0,0,1-.652.41,2.452,2.452,0,0,1-.852.142h-2.038V12.357h2.038a2.437,2.437,0,0,1,.852.141,1.825,1.825,0,0,1,.652.41,1.681,1.681,0,0,1,.354.514,2.418,2.418,0,0,1,.172.584,4.238,4.238,0,0,1,.055.625c0,.215,0,.426,0,.63S1216.182,15.686,1216.18,15.915Zm-.635-1.2a4.224,4.224,0,0,0-.038-.517,1.987,1.987,0,0,0-.116-.463,1.109,1.109,0,0,0-.235-.375,1.266,1.266,0,0,0-.525-.34,2.062,2.062,0,0,0-.644-.1h-1.294v4.809h1.294a2.1,2.1,0,0,0,.644-.094,1.29,1.29,0,0,0,.525-.338,1.107,1.107,0,0,0,.235-.4,2.346,2.346,0,0,0,.116-.51,5.031,5.031,0,0,0,.038-.563c0-.2,0-.384,0-.569S1215.548,14.9,1215.545,14.715Z" transform="translate(-1039.235 -12.305)" fill="#1a1718"/>
        <path id="Path_35" data-name="Path 35" d="M1221.594,20.816v-.785h.785v.785Z" transform="translate(-1042.359 -14.819)" fill="#1a1718"/>
      </g>
    </g>
    <g id="zGo242.tif" transform="translate(869.212 -96.801)">
      <g id="Group_5" data-name="Group 5">
        <path id="Path_36" data-name="Path 36" d="M888.223-7.82h-.477a1.743,1.743,0,0,0-.2-.06,3.751,3.751,0,0,1-2-1.068c-.151-.148-.3-.3-.447-.452q-2.817-2.973-5.634-5.945c-1.447-1.526-2.872-3.072-4.179-4.721a28.527,28.527,0,0,1-3.736-5.954,21.316,21.316,0,0,1-1.908-7.714c-.077-1.473-.082-2.949-.114-4.424-.026-1.227-.044-2.455-.066-3.683q-.049-2.715-.1-5.431c-.026-1.635-.044-3.269-.065-4.9,0-.274-.005-.548-.012-.822-.029-1.262-.118-2.523-.05-3.787.061-1.146.089-2.294.171-3.438.076-1.055.191-2.108.315-3.158a38.3,38.3,0,0,1,.908-4.86,33.908,33.908,0,0,1,5.07-11.2,40.844,40.844,0,0,1,3.9-4.71,60.567,60.567,0,0,1,8.595-7.578c1.849-1.331,3.72-2.633,5.585-3.941.39-.274.8-.515,1.2-.779a1.963,1.963,0,0,1,1.326-.336,1.521,1.521,0,0,1,.508.116,26.423,26.423,0,0,1,3.643,2.048,38.218,38.218,0,0,1,5.589,4.661c1.985,1.965,3.852,4.041,5.745,6.093a14.77,14.77,0,0,1,3.251,5.674,24.006,24.006,0,0,1,.806,3.585,24.789,24.789,0,0,1,.293,3.214q.076,3.418-.024,6.837c-.035,1.218-.045,2.438-.054,3.657-.032,4.162.013,8.322.089,12.483.011.61.01,1.22.02,1.829a3.66,3.66,0,0,0,.046.389v1.75c-.017.183-.049.366-.049.549a24.462,24.462,0,0,1-.139,2.51c-.087.824-.193,1.646-.293,2.469-.12.989-.229,1.98-.368,2.966a23.987,23.987,0,0,1-1.564,5.7,28.447,28.447,0,0,1-4.581,7.526,45.6,45.6,0,0,1-10.3,9.073c-1.549,1-3.146,1.925-4.758,2.824-1.287.718-2.559,1.464-3.836,2.2a5.694,5.694,0,0,1-2.013.775A.343.343,0,0,0,888.223-7.82Zm12.023-73.958c-.042,0-.072-.013-.093,0a5.123,5.123,0,0,0-1.7,1.007c-2.322,2.325-4.657,4.639-6.958,6.985a42.711,42.711,0,0,0-3.851,4.547,24.856,24.856,0,0,0-4.772,12.672c-.08.843-.1,1.693-.108,2.539s.017,1.678.03,2.518c.017,1.113.031,2.226.053,3.339q.048,2.437.106,4.875c.019.83.036,1.66.064,2.489.044,1.279.1,2.559.147,3.838q.055,1.457.106,2.912.055,1.549.106,3.1t.106,3.1q.055,1.655.109,3.31a3.73,3.73,0,0,0,.2,1.274.6.6,0,0,0,.851.431,5.55,5.55,0,0,0,.88-.36q2.178-1.12,4.345-2.259a62.011,62.011,0,0,0,5.6-3.28,15.353,15.353,0,0,0,2.975-2.618,15.916,15.916,0,0,0,3.888-9.832,24.783,24.783,0,0,0,0-3.1c-.062-1.031-.134-2.06-.194-3.091-.058-1-.11-1.992-.161-2.988-.06-1.173-.113-2.345-.174-3.518-.048-.943-.1-1.886-.155-2.829-.024-.458-.044-.917-.068-1.375-.044-.855-.093-1.71-.135-2.565-.03-.617-.049-1.235-.079-1.853-.042-.89-.091-1.781-.133-2.671-.028-.6-.048-1.2-.077-1.8-.042-.882-.092-1.763-.136-2.645-.028-.573-.046-1.147-.076-1.72-.042-.811-.091-1.621-.134-2.432-.029-.555-.042-1.112-.077-1.666-.075-1.18-.159-2.36-.242-3.539q-.085-1.188-.179-2.375C900.3-81.5,900.268-81.641,900.246-81.778Zm-.769,52.2.069.091c.1-.061.205-.12.305-.184,2.483-1.581,4.871-3.3,7.2-5.088a15.819,15.819,0,0,0,4.7-5.859,16.1,16.1,0,0,0,1.489-5.327c.09-.886.118-1.779.162-2.668s.073-1.783.108-2.674c.035-.864.067-1.729.107-2.593.049-1.085.11-2.169.156-3.253.042-.979.079-1.959.1-2.939.027-1.06.053-2.12.054-3.18q0-2.624-.034-5.246c-.012-.874-.067-1.746-.1-2.62a23.99,23.99,0,0,0-.33-3.023,19.417,19.417,0,0,0-.985-3.729,15.327,15.327,0,0,0-2.947-4.714c-.8-.9-1.623-1.8-2.437-2.692q-2.1-2.315-4.208-4.628c-.075-.083-.159-.157-.236-.233-.065.026-.106.041-.145.06-.262.123-.263.124-.247.418s.035.6.054.9c.067,1.048.139,2.1.2,3.144.048.837.081,1.675.117,2.513q.078,1.786.15,3.573.06,1.522.107,3.044.057,1.748.106,3.5c.038,1.3.069,2.595.107,3.893.033,1.148.071,2.3.1,3.443q.056,1.893.106,3.787c.037,1.386.07,2.772.107,4.158q.05,1.934.106,3.867.049,1.708.106,3.416.05,1.589.106,3.177c.038,1.077.072,2.154.12,3.23.044,1,.114,1.991.154,2.988a16.414,16.414,0,0,1-.253,3.638,13.934,13.934,0,0,1-4.03,7.623A2.38,2.38,0,0,1,899.477-29.579Zm-6.442-49.247L893-78.86c-.078.036-.158.07-.235.11q-.646.336-1.29.674c-2.338,1.225-4.663,2.477-6.9,3.881a46.84,46.84,0,0,0-6.267,4.613,21.735,21.735,0,0,0-3.913,4.476,16.9,16.9,0,0,0-2.658,8.221c-.078,1.245.027,2.49.061,3.735.031,1.13.109,2.258.126,3.388.025,1.732.017,3.464.02,5.2,0,.469,0,.937-.019,1.4-.037,1.085-.1,2.171-.12,3.256a35.7,35.7,0,0,0,.174,4.152,30.394,30.394,0,0,0,.591,3.682,25.61,25.61,0,0,0,4.246,9.51c1.537,2.115,3.134,4.186,4.705,6.277a1.857,1.857,0,0,0,.14.145c0-.226.007-.41,0-.593-.048-1.147-.1-2.293-.149-3.44-.04-.97-.071-1.941-.107-2.912q-.079-2.091-.159-4.183c-.032-.8-.073-1.605-.1-2.408q-.058-1.47-.107-2.939c-.037-1.058-.069-2.118-.107-3.177-.033-.953-.07-1.906-.106-2.859s-.075-1.906-.1-2.859c-.041-1.289-.079-2.577-.106-3.867-.029-1.387-.043-2.774-.063-4.16-.007-.5,0-1.007-.021-1.511a46.4,46.4,0,0,1,.115-5.215,26.861,26.861,0,0,1,.425-3.064,22.622,22.622,0,0,1,4.378-9.624c2.491-3.21,4.96-6.438,7.439-9.658C892.935-78.682,892.984-78.755,893.035-78.826Zm20.977,39.741-.068-.022-.182.457a11.085,11.085,0,0,1-2.411,3.8,15.732,15.732,0,0,1-3.409,2.541q-3.3,1.883-6.6,3.769c-3.03,1.723-6.078,3.417-9.208,4.953q-2.7,1.323-5.4,2.641a4.233,4.233,0,0,0-1.194.866,2.742,2.742,0,0,0-.833,2.052c.022.75.046,1.5.105,2.247.067.835.162,1.667.272,2.5a3.788,3.788,0,0,0,.732,1.822,2.651,2.651,0,0,0,2.21,1.106,3.857,3.857,0,0,0,2.031-.6c2.653-1.6,5.32-3.18,7.948-4.819a39.642,39.642,0,0,0,8.576-7.161,29.591,29.591,0,0,0,5.8-9.539,31.006,31.006,0,0,0,1.5-5.7C913.932-38.477,913.969-38.782,914.012-39.085ZM872.262-65.657l.046.024c.059-.061.122-.119.177-.184.437-.509.868-1.024,1.311-1.528.73-.829,1.443-1.673,2.206-2.47a41.648,41.648,0,0,1,6.057-5.132,67.334,67.334,0,0,1,14.153-7.869,8.829,8.829,0,0,0,2.69-1.611,3.957,3.957,0,0,0,1.182-1.6,6.078,6.078,0,0,0,.334-1.708,9.421,9.421,0,0,0-.479-3.363,5.357,5.357,0,0,0-.92-1.748A2.921,2.921,0,0,0,896.786-94a3.379,3.379,0,0,0-1.69.368c-.8.4-1.6.819-2.386,1.26a9.9,9.9,0,0,0-2.046,1.544c-1.509,1.463-3.04,2.906-4.549,4.37-1.674,1.624-3.366,3.23-4.95,4.944a44.669,44.669,0,0,0-5.154,6.652,27.709,27.709,0,0,0-3.514,8.16C872.41-66.357,872.339-66.006,872.262-65.657Z" transform="translate(-869.212 96.801)" fill="#242424"/>
        <path id="Path_37" data-name="Path 37" d="M914.219-26.333a2.382,2.382,0,0,0,.252-.192,13.935,13.935,0,0,0,4.03-7.623,16.429,16.429,0,0,0,.253-3.638c-.04-1-.11-1.991-.154-2.988-.048-1.076-.082-2.153-.12-3.23q-.055-1.589-.106-3.177-.055-1.708-.106-3.416-.057-1.934-.106-3.867c-.037-1.387-.07-2.772-.107-4.158q-.05-1.894-.106-3.787c-.034-1.148-.072-2.3-.1-3.443-.037-1.3-.069-2.6-.107-3.893q-.049-1.748-.106-3.5-.049-1.522-.107-3.044-.07-1.786-.15-3.573c-.036-.838-.069-1.676-.117-2.513-.059-1.048-.132-2.1-.2-3.144-.019-.3-.038-.6-.054-.9s-.015-.3.247-.418c.039-.019.08-.034.145-.06.077.075.161.15.236.233q2.105,2.313,4.207,4.628c.814.9,1.633,1.787,2.437,2.692a15.329,15.329,0,0,1,2.947,4.714,19.426,19.426,0,0,1,.985,3.729,24.023,24.023,0,0,1,.329,3.023c.035.874.089,1.746.1,2.62q.036,2.623.034,5.246c0,1.06-.027,2.12-.054,3.18-.026.98-.062,1.96-.1,2.939-.047,1.085-.107,2.169-.156,3.253-.04.864-.072,1.729-.107,2.593-.036.891-.065,1.783-.108,2.674s-.073,1.783-.162,2.668a16.1,16.1,0,0,1-1.49,5.327,15.818,15.818,0,0,1-4.695,5.859c-2.333,1.791-4.721,3.507-7.2,5.088-.1.064-.2.122-.305.184Z" transform="translate(-883.954 93.555)" fill="url(#linear-gradient)"/>
        <path id="Path_38" data-name="Path 38" d="M894.251-70.087c-.052.071-.1.144-.155.213-2.479,3.22-4.947,6.449-7.439,9.658a22.621,22.621,0,0,0-4.378,9.624,26.833,26.833,0,0,0-.425,3.064,46.375,46.375,0,0,0-.115,5.215c.016.5.013,1.007.021,1.511.02,1.387.034,2.774.063,4.16.027,1.29.066,2.578.106,3.867.03.954.069,1.906.1,2.859s.073,1.906.106,2.859c.038,1.059.07,2.119.107,3.177q.051,1.47.107,2.939c.032.8.073,1.605.1,2.408q.083,2.091.159,4.183c.036.97.068,1.941.108,2.912.046,1.147.1,2.294.149,3.44.008.184,0,.367,0,.593a1.837,1.837,0,0,1-.14-.145c-1.572-2.091-3.169-4.162-4.705-6.277a25.608,25.608,0,0,1-4.246-9.51,30.394,30.394,0,0,1-.591-3.682,35.676,35.676,0,0,1-.174-4.152c.018-1.085.083-2.171.12-3.256.016-.468.02-.936.019-1.4,0-1.732.005-3.464-.02-5.2-.017-1.13-.095-2.258-.126-3.388-.034-1.245-.139-2.489-.061-3.735a16.9,16.9,0,0,1,2.658-8.221,21.738,21.738,0,0,1,3.913-4.476,46.836,46.836,0,0,1,6.267-4.613c2.237-1.4,4.562-2.655,6.9-3.881q.646-.338,1.29-.674c.077-.04.157-.073.235-.11Z" transform="translate(-870.428 88.062)" fill="url(#linear-gradient-2)"/>
        <path id="Path_39" data-name="Path 39" d="M921.561-10.981c-.044.3-.081.608-.131.91a31.006,31.006,0,0,1-1.5,5.7,29.591,29.591,0,0,1-5.8,9.539,39.638,39.638,0,0,1-8.576,7.161c-2.629,1.639-5.3,3.218-7.948,4.819a3.858,3.858,0,0,1-2.031.6,2.651,2.651,0,0,1-2.21-1.106,3.788,3.788,0,0,1-.732-1.822c-.11-.83-.205-1.663-.272-2.5-.06-.747-.083-1.5-.105-2.247a2.743,2.743,0,0,1,.833-2.052,4.23,4.23,0,0,1,1.194-.866q2.7-1.317,5.4-2.641c3.13-1.537,6.178-3.23,9.208-4.953q3.3-1.879,6.6-3.769A15.738,15.738,0,0,0,918.9-6.749a11.082,11.082,0,0,0,2.411-3.8c.061-.153.122-.3.182-.457Z" transform="translate(-876.761 68.698)" fill="url(#linear-gradient-3)"/>
        <path id="Path_40" data-name="Path 40" d="M873.747-64.3c.077-.35.149-.7.233-1.049a27.707,27.707,0,0,1,3.514-8.16,44.672,44.672,0,0,1,5.154-6.652c1.584-1.713,3.276-3.32,4.951-4.944,1.509-1.464,3.04-2.906,4.549-4.37a9.9,9.9,0,0,1,2.046-1.544c.783-.441,1.583-.856,2.386-1.26a3.379,3.379,0,0,1,1.691-.368,2.921,2.921,0,0,1,2.232,1.154,5.355,5.355,0,0,1,.92,1.748,9.419,9.419,0,0,1,.479,3.363,6.078,6.078,0,0,1-.334,1.708,3.955,3.955,0,0,1-1.182,1.6,8.831,8.831,0,0,1-2.69,1.611,67.337,67.337,0,0,0-14.153,7.869,41.653,41.653,0,0,0-6.057,5.132c-.763.8-1.477,1.641-2.206,2.47-.444.5-.874,1.019-1.311,1.528-.055.065-.118.122-.177.184Z" transform="translate(-870.698 95.44)" fill="url(#linear-gradient-4)"/>
      </g>
    </g>
  </g>
</svg>
